<svg xmlns="http://www.w3.org/2000/svg" viewBox="0 0 200 200">
  <circle cx="100" cy="100" r="40" fill="#FFA500" />
  <path d="M100,60 Q100,100 140,100 Q100,100 100,140 Q100,100 60,100 Q100,100 100,60 Z" fill="#FFA500" />
  <path d="M100,20 Q120,60 160,80 Q120,100 160,120 Q120,140 100,180 Q80,140 40,120 Q80,100 40,80 Q80,60 100,20 Z" fill="none" stroke="#1E88E5" strokeWidth="6" />
  <path d="M100,40 Q110,60 130,70 Q110,80 130,90 Q110,100 100,120 Q90,100 70,90 Q90,80 70,70 Q90,60 100,40 Z" fill="none" stroke="#4CAF50" strokeWidth="6" />
  <circle cx="100" cy="100" r="15" fill="#FFA500" />
  <path d="M100,85 Q100,100 115,100 Q100,100 100,115 Q100,100 85,100 Q100,100 100,85 Z" fill="#FFA500" />
  <path d="M100,90 Q100,100 110,100 Q100,100 100,110 Q100,100 90,100 Q100,100 100,90 Z" fill="#FFF" />
</svg>

